<mxfile host="app.diagrams.net" modified="2023-06-25T09:37:08.293Z" agent="Mozilla/5.0 (Windows NT 6.1; Win64; x64) AppleWebKit/537.36 (KHTML, like Gecko) Chrome/109.0.0.0 Safari/537.36 Edg/109.0.1518.78" etag="rOhb8_dg1UqQLol5hVYk" version="21.5.0" type="github">
  <diagram name="‫עמוד-1‬" id="jDr3f79RMEoViaJH6_MJ">
    <mxGraphModel dx="1387" dy="764" grid="1" gridSize="10" guides="1" tooltips="1" connect="1" arrows="1" fold="1" page="1" pageScale="1" pageWidth="827" pageHeight="1169" math="0" shadow="0">
      <root>
        <mxCell id="0" />
        <mxCell id="1" parent="0" />
        <mxCell id="8PANvvj44qbP8nbOuxuv-1" value="" style="rounded=1;whiteSpace=wrap;html=1;" vertex="1" parent="1">
          <mxGeometry x="220" y="140" width="430" height="550" as="geometry" />
        </mxCell>
        <mxCell id="8PANvvj44qbP8nbOuxuv-2" value="Intercat with PAS application" style="ellipse;whiteSpace=wrap;html=1;" vertex="1" parent="1">
          <mxGeometry x="375" y="160" width="120" height="80" as="geometry" />
        </mxCell>
        <mxCell id="8PANvvj44qbP8nbOuxuv-3" value="Retrive Real time data from satec sensor PM130 plus" style="ellipse;whiteSpace=wrap;html=1;" vertex="1" parent="1">
          <mxGeometry x="280" y="280" width="120" height="80" as="geometry" />
        </mxCell>
        <mxCell id="8PANvvj44qbP8nbOuxuv-4" value="Convert data to CSV" style="ellipse;whiteSpace=wrap;html=1;" vertex="1" parent="1">
          <mxGeometry x="490" y="280" width="120" height="80" as="geometry" />
        </mxCell>
        <mxCell id="8PANvvj44qbP8nbOuxuv-5" value="View data on Things board server" style="ellipse;whiteSpace=wrap;html=1;" vertex="1" parent="1">
          <mxGeometry x="280" y="385" width="120" height="80" as="geometry" />
        </mxCell>
        <mxCell id="8PANvvj44qbP8nbOuxuv-7" value="Send data to Things board server" style="ellipse;whiteSpace=wrap;html=1;" vertex="1" parent="1">
          <mxGeometry x="490" y="385" width="120" height="80" as="geometry" />
        </mxCell>
        <mxCell id="8PANvvj44qbP8nbOuxuv-32" value="" style="edgeStyle=orthogonalEdgeStyle;rounded=0;orthogonalLoop=1;jettySize=auto;html=1;" edge="1" parent="1" source="8PANvvj44qbP8nbOuxuv-8" target="8PANvvj44qbP8nbOuxuv-30">
          <mxGeometry relative="1" as="geometry" />
        </mxCell>
        <mxCell id="8PANvvj44qbP8nbOuxuv-8" value="&lt;div style=&quot;&quot;&gt;&lt;br&gt;&lt;/div&gt;" style="shape=actor;whiteSpace=wrap;html=1;align=center;" vertex="1" parent="1">
          <mxGeometry x="154" y="150" width="40" height="60" as="geometry" />
        </mxCell>
        <mxCell id="8PANvvj44qbP8nbOuxuv-10" value="BOT" style="shape=offPageConnector;whiteSpace=wrap;html=1;" vertex="1" parent="1">
          <mxGeometry x="670" y="160" width="80" height="80" as="geometry" />
        </mxCell>
        <mxCell id="8PANvvj44qbP8nbOuxuv-25" value="" style="endArrow=classic;html=1;rounded=0;entryX=0;entryY=0.5;entryDx=0;entryDy=0;" edge="1" parent="1" target="8PANvvj44qbP8nbOuxuv-2">
          <mxGeometry width="50" height="50" relative="1" as="geometry">
            <mxPoint x="194.96" y="200" as="sourcePoint" />
            <mxPoint x="374.99999999999994" y="170" as="targetPoint" />
          </mxGeometry>
        </mxCell>
        <mxCell id="8PANvvj44qbP8nbOuxuv-26" value="" style="endArrow=classic;html=1;rounded=0;exitX=0;exitY=0.5;exitDx=0;exitDy=0;" edge="1" parent="1" source="8PANvvj44qbP8nbOuxuv-10" target="8PANvvj44qbP8nbOuxuv-2">
          <mxGeometry width="50" height="50" relative="1" as="geometry">
            <mxPoint x="644.96" y="199.5" as="sourcePoint" />
            <mxPoint x="520" y="200" as="targetPoint" />
          </mxGeometry>
        </mxCell>
        <mxCell id="8PANvvj44qbP8nbOuxuv-31" value="" style="edgeStyle=orthogonalEdgeStyle;rounded=0;orthogonalLoop=1;jettySize=auto;html=1;" edge="1" parent="1" source="8PANvvj44qbP8nbOuxuv-30" target="8PANvvj44qbP8nbOuxuv-3">
          <mxGeometry relative="1" as="geometry" />
        </mxCell>
        <mxCell id="8PANvvj44qbP8nbOuxuv-30" value="&lt;div style=&quot;&quot;&gt;&lt;br&gt;&lt;/div&gt;" style="shape=actor;whiteSpace=wrap;html=1;align=center;" vertex="1" parent="1">
          <mxGeometry x="154" y="290" width="40" height="60" as="geometry" />
        </mxCell>
        <mxCell id="8PANvvj44qbP8nbOuxuv-35" value="" style="endArrow=classic;html=1;rounded=0;exitX=0.188;exitY=0.788;exitDx=0;exitDy=0;exitPerimeter=0;" edge="1" parent="1" source="8PANvvj44qbP8nbOuxuv-10" target="8PANvvj44qbP8nbOuxuv-3">
          <mxGeometry width="50" height="50" relative="1" as="geometry">
            <mxPoint x="690" y="220" as="sourcePoint" />
            <mxPoint x="429.8399999999999" y="176.00999999999993" as="targetPoint" />
          </mxGeometry>
        </mxCell>
        <mxCell id="8PANvvj44qbP8nbOuxuv-36" value="" style="endArrow=classic;html=1;rounded=0;" edge="1" parent="1" target="8PANvvj44qbP8nbOuxuv-4">
          <mxGeometry width="50" height="50" relative="1" as="geometry">
            <mxPoint x="710" y="240" as="sourcePoint" />
            <mxPoint x="680" y="250" as="targetPoint" />
          </mxGeometry>
        </mxCell>
        <mxCell id="8PANvvj44qbP8nbOuxuv-37" value="Process and store data in Things board server" style="ellipse;whiteSpace=wrap;html=1;" vertex="1" parent="1">
          <mxGeometry x="470" y="545" width="120" height="80" as="geometry" />
        </mxCell>
        <mxCell id="8PANvvj44qbP8nbOuxuv-38" value="" style="edgeStyle=orthogonalEdgeStyle;rounded=0;orthogonalLoop=1;jettySize=auto;html=1;" edge="1" parent="1" source="8PANvvj44qbP8nbOuxuv-39" target="8PANvvj44qbP8nbOuxuv-37">
          <mxGeometry relative="1" as="geometry" />
        </mxCell>
        <mxCell id="8PANvvj44qbP8nbOuxuv-39" value="Things Board server" style="html=1;whiteSpace=wrap;aspect=fixed;shape=isoRectangle;" vertex="1" parent="1">
          <mxGeometry x="660" y="544" width="135" height="81" as="geometry" />
        </mxCell>
        <mxCell id="8PANvvj44qbP8nbOuxuv-40" value="" style="endArrow=classic;html=1;rounded=0;entryX=0.942;entryY=0.238;entryDx=0;entryDy=0;entryPerimeter=0;exitX=0.75;exitY=0.8;exitDx=0;exitDy=0;exitPerimeter=0;" edge="1" parent="1" source="8PANvvj44qbP8nbOuxuv-10" target="8PANvvj44qbP8nbOuxuv-7">
          <mxGeometry width="50" height="50" relative="1" as="geometry">
            <mxPoint x="685" y="360" as="sourcePoint" />
            <mxPoint x="735" y="310" as="targetPoint" />
          </mxGeometry>
        </mxCell>
        <mxCell id="8PANvvj44qbP8nbOuxuv-41" value="" style="endArrow=classic;html=1;rounded=0;entryX=1;entryY=1;entryDx=0;entryDy=0;exitX=0.259;exitY=0.235;exitDx=0;exitDy=0;exitPerimeter=0;" edge="1" parent="1" source="8PANvvj44qbP8nbOuxuv-39" target="8PANvvj44qbP8nbOuxuv-5">
          <mxGeometry width="50" height="50" relative="1" as="geometry">
            <mxPoint x="690" y="570" as="sourcePoint" />
            <mxPoint x="680" y="510" as="targetPoint" />
          </mxGeometry>
        </mxCell>
        <mxCell id="8PANvvj44qbP8nbOuxuv-42" value="" style="endArrow=classic;html=1;rounded=0;entryX=0.75;entryY=1;entryDx=0;entryDy=0;exitX=0;exitY=0;exitDx=0;exitDy=0;" edge="1" parent="1" source="8PANvvj44qbP8nbOuxuv-5" target="8PANvvj44qbP8nbOuxuv-30">
          <mxGeometry width="50" height="50" relative="1" as="geometry">
            <mxPoint x="390" y="360" as="sourcePoint" />
            <mxPoint x="440" y="310" as="targetPoint" />
          </mxGeometry>
        </mxCell>
        <mxCell id="8PANvvj44qbP8nbOuxuv-43" value="USE Case Diagram" style="rounded=0;whiteSpace=wrap;html=1;" vertex="1" parent="1">
          <mxGeometry x="120" y="70" width="120" height="60" as="geometry" />
        </mxCell>
        <mxCell id="8PANvvj44qbP8nbOuxuv-44" value="Electric satec sensor project" style="rounded=0;whiteSpace=wrap;html=1;" vertex="1" parent="1">
          <mxGeometry x="375" y="70" width="120" height="60" as="geometry" />
        </mxCell>
      </root>
    </mxGraphModel>
  </diagram>
</mxfile>
